<svg width="1680" height="320" viewBox="0 0 1680 320" fill="none" xmlns="http://www.w3.org/2000/svg">
<path d="M2132.12 213.554V214.892C1961.57 261.576 1784.76 296.11 1604.53 309.281C1336.25 328.878 1096.65 299.75 838.282 246.84C649.307 208.14 418.786 141.733 224.926 184.969C148.727 201.964 90.4975 232.013 30.145 271.475C29.4756 271.91 28.4715 273.257 27.6242 272.136C34.1302 266.212 42.4875 261.066 50.3114 256.145C200.983 161.439 353.172 155.716 536.405 184.434C639.36 200.575 740.882 225.377 842.466 246.179C968.474 271.986 1095.79 294.118 1225.48 305.273C1504.64 329.288 1776.25 302.084 2043.23 236.506C2071.36 229.595 2099.54 220.8 2127.5 214.215C2129.04 213.855 2130.47 213.395 2132.13 213.562L2132.12 213.554Z" fill="#090909"/>
<path d="M2132.12 170.711V172.719C2128.93 172.752 2125.67 173.999 2122.7 174.895C1955.53 225.059 1794.33 264.697 1616.13 283.751C1365.26 310.569 1133.89 292.671 889.661 245.234C745.128 217.169 598.17 175.907 451.315 158.778C276.46 138.386 146.3 162.326 12.0077 253.275C9.9053 254.698 8.10622 258.815 4.19429 258.405C16.2962 248.79 30.0193 239.653 43.6064 231.369C281.24 86.5393 540.474 170.351 797.28 224.75C1044.06 277.023 1273.7 307.607 1530.89 289.868C1737.84 275.592 1939.83 231.21 2132.12 170.711Z" fill="#090909"/>
<path d="M2132.12 129.876L2060.12 154.285C1737.57 260.505 1414.39 305.273 1065.78 261.635C905.706 241.602 756.519 203.437 600.994 170.225C402.688 127.876 224.476 101.543 45.7718 202.96C31.17 211.244 16.8821 222.005 2.52088 229.611C2.76146 229.477 4.23631 227.101 5.85757 225.921C58.3862 187.756 136.269 155.18 205.167 141.7C389.206 105.702 606.945 171.472 784.719 210.006C1027.54 262.639 1254.38 291.324 1507.45 269.768C1724.17 251.309 1934.27 198.6 2132.12 127.859V129.868V129.876Z" fill="#090909"/>
<path d="M2.52065 229.62C1.9872 229.904 1.62111 231.209 0.0103185 230.958V229.62C0.65882 229.502 2.21732 229.787 2.52065 229.62Z" fill="#090909"/>
<path d="M2132.12 85.6943V87.7026C2115.51 92.5894 2099.91 99.6518 2083.89 105.685C1755.72 229.176 1422.81 290.638 1058.25 247.585C892.924 228.055 740.673 187.672 580.911 152.159C415.951 115.492 251.891 85.8282 91.1983 152.293C75.9585 158.594 61.4195 167.313 46.0333 172.727C48.5227 170.694 51.5351 169.313 54.4743 167.765C258.104 60.658 490.633 130.705 702.066 179.087C832.446 208.91 960.64 236.791 1095.87 250.288C1343.53 274.998 1582.22 251.426 1818.13 189.63C1925.97 161.381 2030.18 125.199 2132.12 85.6943Z" fill="#090909"/>
<path d="M13.3987 191.463C11.6729 192.793 9.79012 195.086 7.10198 196.802C5.10417 198.082 2.67754 200.174 0.0103185 200.165V198.827C4.90546 196.76 8.63957 193.756 13.3987 191.463Z" fill="#090909"/>
<path d="M46.0333 172.719C45.8345 172.878 46.1065 173.907 44.7154 174.668C43.3242 175.43 41.8389 175.104 41.0126 175.396C43.115 173.681 43.3556 173.656 46.0333 172.719Z" fill="#090909"/>
<path d="M41.0123 175.396C33.2931 181.697 22.8647 186.902 13.3987 191.463C19.6013 186.676 33.1466 178.141 41.0123 175.396Z" fill="#090909"/>
<path d="M17.5827 159.331C15.2293 161.213 15.1038 161.607 11.7253 162.678C11.9659 162.452 11.7776 161.69 13.0641 160.761C14.8527 159.464 16.4322 159.782 17.5827 159.331Z" fill="#090909"/>
<path d="M38.5021 147.95C31.902 152.084 25.1659 156.343 17.5827 159.33C24.7999 153.557 29.695 151.741 38.5021 147.95Z" fill="#090909"/>
<path d="M11.7254 162.678C11.3279 163.063 11.1501 163.682 10.5225 164.058C9.63342 164.577 8.99538 164.468 8.37825 164.686C8.57699 164.477 8.2841 163.498 9.19409 162.996C10.1041 162.494 11.2233 162.845 11.7254 162.678Z" fill="#090909"/>
<path d="M8.37808 164.686C6.44304 166.694 3.22145 169.271 0.0103185 169.371V168.033C2.56249 167.907 4.10002 165.824 5.93047 165.045C6.9346 164.619 7.97015 164.836 8.37808 164.686Z" fill="#090909"/>
<path d="M2132.12 44.8593L2022.8 89.6185C1756.99 193.211 1473.77 257.258 1174.44 243.669C1026 236.933 881.659 210.257 739.721 177.07C556.268 134.168 334.878 60.2728 144.124 108.279C104.325 118.295 74.5254 132.445 38.4918 147.95C57.497 136.051 82.8827 126.135 105.706 118.379C303.886 51.0013 526.604 125.207 719.826 170.895C957.471 227.076 1174.66 259.367 1424.61 236.305C1674.7 213.235 1912.99 138.319 2132.12 42.8511V44.8593Z" fill="#090909"/>
<path d="M63.6055 277.148C46.3993 290.855 25.3439 302.712 8.77569 317.305C7.83432 318.134 6.68377 318.669 6.70469 319.991H3.35758L29.2872 299.566C40.8975 292.42 50.9806 283.148 63.6055 277.148Z" fill="#090909"/>
<path d="M1217.52 319.992H1196.6C1197.07 317.833 1195.24 318.862 1193.68 318.678C1079.86 305.122 970.368 285.575 859.024 263.041C609.832 212.608 339.7 129.784 103.332 255.041C89.9327 262.137 77.0673 270.764 63.6056 277.149C71.2098 271.09 81.2407 265.543 90.121 260.539C272.455 157.649 460.541 181.472 664.589 221.118C829.423 253.142 992.03 293.223 1160.45 313.105L1217.53 319.992H1217.52Z" fill="#090909"/>
<path d="M1107.9 319.992H1093.68C1094.17 317.958 1092.44 318.82 1090.91 318.561C960.243 296.938 833.419 268.245 704.095 243.058C556.09 214.231 393.954 186.961 244.548 224.758C174.144 242.573 102.746 277.04 48.533 316.971C47.3825 317.824 46.1063 318.586 46.0331 319.992H42.686C68.3123 300.285 97.5471 282.345 127.598 267.091C387.867 135.031 692.38 247.903 963.129 294.227L1107.9 319.992Z" fill="#090909"/>
<path d="M1030.92 319.992H1019.2C1019.7 318.1 1018.04 318.728 1016.57 318.452C873.375 292.277 731.52 255.853 586.748 235.854C399.739 210.022 240.322 219.378 89.4306 317.548C88.3323 318.259 86.9097 318.477 87.0457 319.992H83.6986C94.4302 312.009 106.553 304.837 118.582 298.026C308.938 190.224 508.415 216.474 721.5 257.258C823.639 276.805 924.774 299.499 1027.05 318.745C1028.43 319.004 1029.95 318.996 1030.93 319.992H1030.92Z" fill="#090909"/>
<path d="M967.324 319.991H956.446C956.948 318.05 955.253 318.77 953.789 318.468C855.991 298.085 756.875 276.035 657.873 259.953C462.779 228.256 301.553 224.549 132.608 318C131.562 318.577 130.129 318.51 130.537 319.991H127.19C136.405 313.473 147.701 307.624 158.224 302.31C346.08 207.378 545.756 235.837 749.605 274.931C819.957 288.42 890.225 303.164 960.138 318.042C962.471 318.535 965.274 319.021 967.313 320L967.324 319.991Z" fill="#090909"/>
<path d="M908.749 319.992H897.871C898.373 318.05 896.668 318.77 895.225 318.46C660.175 268.304 406.6 208.951 182.197 316.778C180.681 317.506 177.208 318.377 177.417 319.983H173.233C180.66 315.021 190.053 310.946 198.609 307.147C406.558 214.809 638.554 263.275 854.547 308.126C872.663 311.883 890.863 315.64 908.76 319.983L908.749 319.992Z" fill="#090909"/>
<path d="M851.849 319.991H840.971C841.473 318.058 839.778 318.77 838.314 318.468C644.213 278.178 417.468 237.837 230.647 318.108C229.476 318.611 228.001 318.368 228.44 319.991H223.419C230.333 316.176 238.837 312.937 246.546 310.042C399.613 252.581 561.006 266.663 721.312 294.21C765.107 301.733 808.713 310.419 851.838 319.991H851.849Z" fill="#090909"/>
<path d="M793.274 319.991H780.723C781.225 318.05 779.53 318.77 778.076 318.468C623.785 286.286 439.412 268.396 288.635 318.301C287.359 318.728 285.707 318.226 286.198 320H279.504C435.207 264.463 611.819 286.001 772.376 315.64C779.342 316.929 786.528 318.15 793.285 320L793.274 319.991Z" fill="#090909"/>
<path d="M724.659 319.991H711.27C711.762 317.991 710.057 318.786 708.509 318.56C597.469 301.892 469.557 291.549 359.814 318.343C358.444 318.678 356.843 318.201 357.314 319.991H347.273C454.547 292.553 570.734 297.758 680.466 312.837C695.215 314.862 710.277 316.895 724.659 319.991Z" fill="#090909"/>
<path d="M627.593 319.992H599.142C599.613 317.975 597.866 318.695 596.255 318.653C571.079 318.025 546.164 316.184 520.862 316.611C505.58 316.87 490.173 318.192 474.839 318.644C459.505 319.096 471.482 317.967 471.952 319.983H447.686L470.697 317.305C511.051 314.619 551.582 314.762 592.019 316.636L627.593 319.975V319.992Z" fill="#090909"/>
<path d="M2132.12 1.34721C1928.82 98.5053 1706.16 178.518 1471.22 212.006C1265.97 241.259 1071.06 232.398 869.254 193.279C757.492 171.614 650.102 141.022 540.38 114.304C365.964 71.8372 196.705 39.9477 31.6094 122.722C22.227 127.424 13.3049 132.704 3.98533 137.407C2.69878 138.06 1.72599 138.763 0.0210571 138.587V137.248C2.36403 137.842 2.52099 136.913 3.64018 136.378C9.89508 133.357 16.2336 128.93 22.6873 125.592C239.391 13.4386 473.312 97.3924 693.897 152.143C828.932 185.664 964.144 214.248 1105.82 224.256C1452.75 248.782 1778.05 161.23 2074.94 26.894C2094.18 18.1915 2113.24 9.17107 2132.12 0V1.33884V1.34721Z" fill="#090909"/>
<path d="M0.0104556 290.537C5.86789 288.135 10.6689 282.521 15.8673 279.458C17.0074 278.789 17.6141 278.22 19.2563 278.496C17.8443 280.035 16.0452 281.608 14.267 282.889C13.2524 283.625 11.7253 283.65 11.1605 284.069C8.02255 286.42 4.9161 291.533 3.67609e-05 291.876V290.537H0.0104556Z" fill="#090909"/>
<path d="M0.0103185 260.413H2.52065C2.34283 261.417 1.08767 261.685 0.0103185 261.752V260.413Z" fill="#090909"/>
<path d="M26.7874 273.14C25.1034 274.772 22.8754 277.466 20.0932 277.818C19.1832 277.106 24.7582 272.253 26.7874 273.14Z" fill="#090909"/>
</svg>
