<svg width="141" height="40" viewBox="0 0 141 40" fill="none" xmlns="http://www.w3.org/2000/svg">
<path d="M18.3158 39.2872C19.9666 40.24 21.9987 40.2376 23.6445 39.2798L27.1492 37.2429L14.6775 30.043C10.9081 27.8674 8.5865 23.8455 8.5865 19.492V5.08492L5.06702 7.10455C3.41619 8.05247 2.39648 9.8122 2.39648 11.7155V23.0239C2.39648 27.3997 4.73042 31.4439 8.51967 33.6317L18.3133 39.2846L18.3158 39.2872Z" fill="#F2F2F2"/>
<path d="M22.9068 1.28825C20.9318 2.18667 19.4766 4.02561 19.1102 6.2358C19.0533 6.58726 19.0211 6.94613 19.0211 7.31243V16.9254C19.0211 18.0317 19.3206 19.096 19.8552 20.0217C20.3874 20.9473 21.1621 21.7344 22.1199 22.2863L25.0898 23.9966C26.5847 24.8578 28.3198 25.3504 30.1686 25.3504C33.099 25.3504 35.7423 24.1154 37.6035 22.1378V27.667C37.6035 28.7684 37.3089 29.8252 36.7793 30.746C36.2447 31.674 35.4726 32.4635 34.5122 33.0179C32.6015 34.1219 30.2454 34.1219 28.3347 33.0179L17.3851 26.6968C14.5711 25.0731 12.8386 22.0685 12.8386 18.8213V6.18135C12.8386 5.07749 13.1331 4.01324 13.6652 3.09007C14.1973 2.16441 14.9695 1.37982 15.9249 0.827893C17.8406 -0.275964 20.1942 -0.275964 22.1051 0.827893L22.9068 1.29072V1.28825Z" fill="#F2F2F2"/>
<path d="M33.0546 7.14906C35.8686 8.77266 37.6035 11.7749 37.6035 15.0246V15.0345C37.6035 19.0465 34.4629 22.4173 30.4534 22.5684C29.6909 22.5957 28.9535 22.5089 28.2555 22.3234C30.0969 21.2888 31.416 19.336 31.416 16.9229C31.416 15.2918 30.7776 13.7549 29.6737 12.6139C29.2801 12.2055 28.8272 11.8491 28.3198 11.5571L21.7957 7.79009V7.32972C21.7957 5.19626 23.5232 3.47118 25.6543 3.47118C26.3102 3.47118 26.9288 3.63453 27.4684 3.92411L33.0546 7.14906Z" fill="#F2F2F2"/>
<path d="M47.9819 16.1691V3.3722H45V17.7762C45 18.4669 45.5594 19.0262 46.25 19.0262H55.312V16.1691H47.9819Z" fill="white"/>
<path d="M58.04 3C57.1708 3 56.4243 3.74441 56.4243 4.61575C56.4243 5.48709 57.1708 6.2315 58.04 6.2315C58.9092 6.2315 59.6558 5.48709 59.6558 4.61575C59.6558 3.74441 58.9092 3 58.04 3ZM56.5491 7.59553V19.0262H59.4062V7.59553H56.5491Z" fill="white"/>
<path d="M70.88 7.59553C70.4884 7.59553 70.1334 7.82573 69.9742 8.18287L69.7375 8.71213C69.4643 8.48838 69.1911 8.26463 68.8683 8.09251C68.2982 7.79346 67.5022 7.47074 66.5082 7.47074C63.651 7.47074 61.1661 9.92986 61.1661 13.3098C61.1661 16.6898 63.651 19.1489 66.5082 19.1489C67.429 19.1489 68.1734 18.8756 68.6941 18.6024C68.9931 18.4281 69.2664 18.2539 69.4901 18.0301V21.75C69.4901 22.4406 70.0495 23 70.7401 23H72.3473V7.59553H70.88ZM66.8825 16.4187C65.2668 16.4187 64.0254 15.2009 64.0254 13.3141C64.0254 11.4273 65.2668 10.2074 66.8825 10.2074C68.4983 10.2074 69.7397 11.4251 69.7397 13.3141C69.7397 15.2031 68.4983 16.4187 66.8825 16.4187Z" fill="white"/>
<path d="M82.3516 7.59553V13.9316C82.3516 15.4225 81.3812 16.4165 79.9893 16.4165C78.5973 16.4165 77.6291 15.4225 77.6291 13.9316V7.59553H74.772V14.3059C74.772 17.2879 76.6609 19.1532 79.3696 19.1532C80.2883 19.1532 81.108 18.8541 81.6803 18.5314C82.003 18.3571 82.3279 18.1334 82.6011 17.9096L82.8356 18.4389C82.9948 18.796 83.3498 19.0284 83.7414 19.0284H85.2087V7.59553H82.3516Z" fill="white"/>
<path d="M89.1782 3C88.309 3 87.5624 3.74441 87.5624 4.61575C87.5624 5.48709 88.3068 6.2315 89.1782 6.2315C90.0495 6.2315 90.7939 5.48709 90.7939 4.61575C90.7939 3.74441 90.0495 3 89.1782 3ZM87.6872 7.59553V19.0262H90.5443V7.59553H87.6872Z" fill="white"/>
<path d="M100.628 8.59165C100.404 8.39157 100.131 8.21945 99.8322 8.04518C99.3115 7.77194 98.565 7.47289 97.6463 7.47289C94.7892 7.47289 92.3042 9.93201 92.3042 13.312C92.3042 16.6919 94.7892 19.151 97.6463 19.151C98.6403 19.151 99.4342 18.852 100.006 18.5293C100.329 18.355 100.602 18.1312 100.876 17.9075L101.11 18.4367C101.269 18.796 101.624 19.0262 102.018 19.0262H103.485V3.3722H101.878C101.188 3.3722 100.628 3.93158 100.628 4.6222V8.59165ZM98.0185 16.4187C96.4028 16.4187 95.1614 15.2009 95.1614 13.3141C95.1614 11.4273 96.4028 10.2074 98.0185 10.2074C99.6343 10.2074 100.876 11.4251 100.876 13.3141C100.876 15.2031 99.6321 16.4187 98.0185 16.4187Z" fill="white"/>
<path d="M107.453 3C106.583 3 105.837 3.74441 105.837 4.61575C105.837 5.48709 106.581 6.2315 107.453 6.2315C108.324 6.2315 109.068 5.48709 109.068 4.61575C109.068 3.74441 108.324 3 107.453 3ZM105.964 7.59553V19.0262H108.821V7.59553H105.964Z" fill="white"/>
<path d="M118.752 7.59553V13.9316C118.752 15.4225 117.784 16.4165 116.392 16.4165C115 16.4165 114.03 15.4225 114.03 13.9316V7.59553H111.173V14.3059C111.173 17.2879 113.062 19.1532 115.768 19.1532C116.689 19.1532 117.509 18.8541 118.079 18.5314C118.401 18.3571 118.724 18.1334 118.997 17.9096L119.232 18.4389C119.393 18.796 119.746 19.0284 120.138 19.0284H121.605V7.59553H118.748H118.752Z" fill="white"/>
<path d="M136.011 7.47289C135.017 7.47289 134.174 7.84509 133.576 8.2173C133.227 8.44105 132.928 8.68847 132.655 8.9617C132.481 8.68847 132.233 8.44105 131.934 8.2173C131.414 7.84509 130.592 7.47289 129.423 7.47289C128.604 7.47289 127.932 7.79561 127.459 8.09466C127.186 8.26893 126.913 8.49053 126.689 8.71429L126.454 8.18503C126.295 7.82573 125.94 7.59553 125.549 7.59553H124.081V19.0262H126.938V12.4406C126.938 11.0486 127.808 10.2031 128.802 10.2031C129.796 10.2031 130.667 11.0486 130.667 12.4406V19.0262H133.524V12.4406C133.524 11.0486 134.393 10.2031 135.389 10.2031C136.386 10.2031 137.253 11.0486 137.253 12.4406V19.0262H140.11V12.1932C140.11 9.08649 138.494 7.47074 136.009 7.47074L136.011 7.47289Z" fill="white"/>
<path d="M53.6963 23.1152V25.2098H47.2366V28.9651H52.8197V30.984H47.2366V36.3244H45.0261V24.1748C45.0261 23.5896 45.5057 23.1152 46.0972 23.1152H53.6963ZM59.2062 36.5508C56.5956 36.5508 54.4233 34.3241 54.4233 31.5503C54.4233 28.7574 56.5956 26.5496 59.2062 26.5496C61.8168 26.5496 63.9891 28.7574 63.9891 31.5503C63.9891 34.3241 61.8168 36.5508 59.2062 36.5508ZM59.2062 34.6261C60.6926 34.6261 61.9121 33.3618 61.9121 31.5503C61.9121 29.7386 60.6926 28.4742 59.2062 28.4742C57.72 28.4742 56.5005 29.7386 56.5005 31.5503C56.5005 33.3618 57.72 34.6261 59.2062 34.6261ZM69.6537 36.5508C67.3861 36.5508 65.7855 34.909 65.7855 32.3804V26.7761H67.8815V32.2295C67.8815 33.6447 68.7962 34.6261 70.0729 34.6261C71.3877 34.6261 72.3215 33.6447 72.3215 32.2295V26.7761H74.3984V36.3244H73.2916C73.0185 36.3244 72.7754 36.1538 72.6852 35.8989L72.4547 35.2487H72.3596C72.0546 35.6639 71.0827 36.5508 69.6537 36.5508ZM78.9373 36.3244H76.8413V26.7761H77.9509C78.2225 26.7761 78.4648 26.945 78.5561 27.1981L78.7848 27.8328H78.8802C79.1852 27.4176 80.1568 26.5496 81.5861 26.5496C83.8537 26.5496 85.4543 28.1913 85.4543 30.72V36.3244H83.3773V30.8709C83.3773 29.4557 82.4435 28.4742 81.1669 28.4742C79.852 28.4742 78.9373 29.4557 78.9373 30.8709V36.3244ZM91.6889 36.5508C89.3071 36.5508 87.2491 34.4561 87.2491 31.5503C87.2491 28.6442 89.3071 26.5496 91.6889 26.5496C93.1562 26.5496 94.2043 27.4365 94.4138 27.7762H94.5092V23.9629C94.5092 23.4948 94.8928 23.1152 95.366 23.1152H96.6052V36.3244H95.4984C95.2255 36.3244 94.9821 36.1538 94.892 35.8989L94.6615 35.2487H94.5664C94.2994 35.6073 93.2325 36.5508 91.6889 36.5508ZM91.9176 34.6261C93.3087 34.6261 94.5092 33.3806 94.5092 31.5503C94.5092 29.7197 93.3087 28.4742 91.9176 28.4742C90.5266 28.4742 89.3261 29.7197 89.3261 31.5503C89.3261 33.3806 90.5266 34.6261 91.9176 34.6261ZM102.755 26.5496C105.118 26.5496 106.604 28.1159 106.604 30.4368V36.3244H105.497C105.224 36.3244 104.981 36.1538 104.891 35.8989L104.661 35.2487H104.565C104.184 35.7393 103.289 36.5508 101.745 36.5508C99.8586 36.5508 98.5057 35.2676 98.5057 33.7015C98.5057 31.7955 100.335 30.5877 102.984 30.5877H104.527V30.2671C104.527 29.1159 103.822 28.4177 102.736 28.4177C101.688 28.4177 101.154 29.0594 101.04 29.682H98.944C99.1155 28.0782 100.43 26.5496 102.755 26.5496ZM102.183 34.7958C103.612 34.7958 104.527 33.8146 104.527 32.6824V32.0786H103.003C101.364 32.0786 100.602 32.6635 100.602 33.5315C100.602 34.2675 101.135 34.7958 102.183 34.7958ZM112.433 36.5508C110.68 36.5508 109.403 35.3242 109.403 33.2295V28.6442H107.821V26.8893H108.936C109.698 26.8893 109.67 26.9168 109.67 26.1808V23.8991C109.67 23.4309 110.053 23.0514 110.527 23.0514H111.48V26.7761H113.576V28.6442H111.48V33.0598C111.48 34.1164 112.052 34.6072 112.909 34.6072C113.157 34.6072 113.385 34.5695 113.576 34.475V36.3621C113.328 36.4564 112.947 36.5508 112.433 36.5508ZM116.502 25.4363C115.816 25.4363 115.264 24.9079 115.264 24.2286C115.264 23.5304 115.816 23.002 116.502 23.002C117.188 23.002 117.722 23.5304 117.722 24.2286C117.722 24.9079 117.188 25.4363 116.502 25.4363ZM117.55 36.3244H115.454V26.7761H117.55V36.3244ZM124.206 36.5508C121.596 36.5508 119.424 34.3241 119.424 31.5503C119.424 28.7574 121.596 26.5496 124.206 26.5496C126.817 26.5496 128.989 28.7574 128.989 31.5503C128.989 34.3241 126.817 36.5508 124.206 36.5508ZM124.206 34.6261C125.693 34.6261 126.912 33.3618 126.912 31.5503C126.912 29.7386 125.693 28.4742 124.206 28.4742C122.72 28.4742 121.501 29.7386 121.501 31.5503C121.501 33.3618 122.72 34.6261 124.206 34.6261ZM132.977 36.3244H130.881V26.7761H131.99C132.262 26.7761 132.504 26.945 132.596 27.1981L132.825 27.8328H132.92C133.225 27.4176 134.197 26.5496 135.626 26.5496C137.893 26.5496 139.494 28.1913 139.494 30.72V36.3244H137.417V30.8709C137.417 29.4557 136.483 28.4742 135.207 28.4742C133.892 28.4742 132.977 29.4557 132.977 30.8709V36.3244Z" fill="white" fill-opacity="0.5"/>
</svg>
