<svg width="14" height="15" viewBox="0 0 14 15" fill="none" xmlns="http://www.w3.org/2000/svg">
<g clip-path="url(#clip0_1_213)">
<path d="M14 7.5C14 3.63401 10.866 0.5 7 0.5C3.13401 0.5 0 3.63401 0 7.5C0 11.366 3.13401 14.5 7 14.5C10.866 14.5 14 11.366 14 7.5Z" fill="url(#paint0_linear_1_213)"/>
<path d="M6.54245 11.8863C6.92127 12.1052 7.38857 12.1046 7.76674 11.8844L8.57168 11.4165L5.70742 9.76297C4.84163 9.26307 4.30851 8.33951 4.30851 7.34026V4.03143L3.50051 4.49507C3.12111 4.71275 2.88745 5.11674 2.88745 5.55395V8.15133C2.88745 9.1567 3.42365 10.0852 4.29375 10.5876L6.5431 11.8863H6.54245Z" fill="white"/>
<path d="M7.59636 3.15949C7.14316 3.3661 6.80864 3.78854 6.72442 4.29584C6.71091 4.37639 6.70413 4.45879 6.70413 4.54303V6.75055C6.70413 7.00452 6.77238 7.24865 6.89537 7.46138C7.01771 7.67351 7.19544 7.85431 7.41556 7.98162L8.09811 8.3745C8.44188 8.57192 8.83968 8.68507 9.2646 8.68507C9.93791 8.68507 10.5448 8.40157 10.9722 7.94717V9.21696C10.9722 9.46967 10.9046 9.71259 10.7834 9.92407C10.661 10.1369 10.4834 10.3183 10.2626 10.4455C9.82356 10.6989 9.28243 10.6989 8.8434 10.4455L7.38789 9.60557L6.32903 8.99372C5.68279 8.62108 5.28491 7.9312 5.28491 7.18466V4.2817C5.28491 4.02835 5.35255 3.78424 5.47492 3.57209C5.59731 3.35995 5.77439 3.17916 5.9939 3.0525C6.43354 2.79915 6.97467 2.79915 7.4131 3.0525L7.59696 3.15887L7.59636 3.15949Z" fill="white"/>
<path d="M9.92687 4.50553C10.5732 4.87877 10.9716 5.56809 10.9716 6.31458V6.31704C10.9716 7.2388 10.2504 8.01296 9.32919 8.04676C9.15398 8.05354 8.98488 8.03325 8.82437 7.99081C9.24678 7.75347 9.55057 7.30459 9.55057 6.75055C9.55057 6.37605 9.40363 6.0225 9.15026 5.76117C9.05986 5.66709 8.95595 5.5853 8.83974 5.5189L7.3418 4.65372V4.54795C7.3418 4.05787 7.73905 3.66125 8.2285 3.66125C8.37916 3.66125 8.52124 3.69876 8.64484 3.76518L9.92753 4.50614L9.92687 4.50553Z" fill="white"/>
</g>
<defs>
<linearGradient id="paint0_linear_1_213" x1="7" y1="0.5" x2="7" y2="14.5" gradientUnits="userSpaceOnUse">
<stop stop-color="#EA580C"/>
<stop offset="1" stop-color="#D24F0B"/>
</linearGradient>
<clipPath id="clip0_1_213">
<rect width="14" height="14" fill="white" transform="translate(0 0.5)"/>
</clipPath>
</defs>
</svg>
