<svg width="22" height="24" viewBox="0 0 22 24" fill="none" xmlns="http://www.w3.org/2000/svg">
<path d="M10.3895 23.5723C11.38 24.144 12.5993 24.1426 13.5867 23.5679L15.6896 22.3457L8.20657 18.0258C5.9449 16.7205 4.55196 14.3073 4.55196 11.6952V3.05096L2.44028 4.26273C1.44977 4.83149 0.837952 5.88732 0.837952 7.0293V13.8143C0.837952 16.4398 2.23831 18.8663 4.51186 20.179L10.388 23.5708L10.3895 23.5723Z" fill="white"/>
<path d="M13.1442 0.772947C11.9592 1.312 11.086 2.41536 10.8662 3.74148C10.8321 3.95235 10.8127 4.16768 10.8127 4.38746V10.1552C10.8127 10.819 10.9924 11.4576 11.3132 12.013C11.6325 12.5684 12.0973 13.0407 12.672 13.3718L14.454 14.3979C15.3509 14.9147 16.392 15.2102 17.5012 15.2102C19.2595 15.2102 20.8455 14.4692 21.9622 13.2827V16.6002C21.9622 17.261 21.7854 17.8951 21.4677 18.4476C21.1469 19.0044 20.6836 19.4781 20.1074 19.8108C18.961 20.4731 17.5473 20.4731 16.4009 19.8108L9.83115 16.0181C8.1427 15.0438 7.1032 13.2411 7.1032 11.2928V3.70881C7.1032 3.04649 7.27991 2.40795 7.59919 1.85404C7.91846 1.29864 8.38178 0.827893 8.955 0.496736C10.1044 -0.165579 11.5166 -0.165579 12.6631 0.496736L13.1442 0.774432V0.772947Z" fill="white"/>
<path d="M19.2328 4.28943C20.9212 5.2636 21.9622 7.06492 21.9622 9.01473V9.02067C21.9622 11.4279 20.0778 13.4504 17.6721 13.5411C17.2146 13.5574 16.7721 13.5054 16.3534 13.394C17.4582 12.7733 18.2497 11.6016 18.2497 10.1537C18.2497 9.17511 17.8666 8.25292 17.2043 7.56834C16.9681 7.3233 16.6964 7.10946 16.392 6.93424L12.4775 4.67405V4.39784C12.4775 3.11776 13.514 2.08271 14.7927 2.08271C15.1862 2.08271 15.5573 2.18072 15.8811 2.35447L19.2328 4.28943Z" fill="white"/>
</svg>
