<svg width="40" height="40" viewBox="0 0 40 40" fill="none" xmlns="http://www.w3.org/2000/svg">
<path d="M18.3158 39.2872C19.9666 40.24 21.9987 40.2376 23.6445 39.2798L27.1492 37.2429L14.6775 30.043C10.9081 27.8674 8.5865 23.8455 8.5865 19.492V5.08492L5.06702 7.10455C3.41619 8.05247 2.39648 9.8122 2.39648 11.7155V23.0239C2.39648 27.3997 4.73042 31.4439 8.51967 33.6317L18.3133 39.2846L18.3158 39.2872Z" fill="#F2F2F2"/>
<path d="M22.9068 1.28825C20.9318 2.18667 19.4766 4.02561 19.1102 6.2358C19.0533 6.58726 19.0211 6.94613 19.0211 7.31243V16.9254C19.0211 18.0317 19.3206 19.096 19.8552 20.0217C20.3874 20.9473 21.1621 21.7344 22.1199 22.2863L25.0898 23.9966C26.5847 24.8578 28.3198 25.3504 30.1686 25.3504C33.099 25.3504 35.7423 24.1154 37.6035 22.1378V27.667C37.6035 28.7684 37.3089 29.8252 36.7793 30.746C36.2447 31.674 35.4726 32.4635 34.5122 33.0179C32.6015 34.1219 30.2454 34.1219 28.3347 33.0179L17.3851 26.6968C14.5711 25.0731 12.8386 22.0685 12.8386 18.8213V6.18135C12.8386 5.07749 13.1331 4.01324 13.6652 3.09007C14.1973 2.16441 14.9695 1.37982 15.9249 0.827893C17.8406 -0.275964 20.1942 -0.275964 22.1051 0.827893L22.9068 1.29072V1.28825Z" fill="#F2F2F2"/>
<path d="M33.0546 7.14906C35.8686 8.77266 37.6035 11.7749 37.6035 15.0246V15.0345C37.6035 19.0465 34.4629 22.4173 30.4534 22.5684C29.6909 22.5957 28.9535 22.5089 28.2555 22.3234C30.0969 21.2888 31.416 19.336 31.416 16.9229C31.416 15.2918 30.7776 13.7549 29.6737 12.6139C29.2801 12.2055 28.8272 11.8491 28.3198 11.5571L21.7957 7.79009V7.32972C21.7957 5.19626 23.5232 3.47118 25.6543 3.47118C26.3102 3.47118 26.9288 3.63453 27.4684 3.92411L33.0546 7.14906Z" fill="#F2F2F2"/>
</svg>
