<svg width="42" height="42" viewBox="0 0 42 42" fill="none" xmlns="http://www.w3.org/2000/svg">
<circle cx="21" cy="21" r="21" fill="white"/>
<g clip-path="url(#clip0_71_285)">
<path d="M20.2784 34.5011C21.449 35.1681 22.89 35.1665 24.0569 34.496L26.5422 33.0701L17.6986 28.0302C15.0257 26.5074 13.3795 23.692 13.3795 20.6445V10.5596L10.8839 11.9733C9.71329 12.6369 8.99023 13.8687 8.99023 15.201V23.1168C8.99023 26.1799 10.6452 29.0108 13.3321 30.5423L20.2767 34.4994L20.2784 34.5011Z" fill="url(#paint0_linear_71_285)"/>
<path d="M23.5339 7.90177C22.1334 8.53067 21.1015 9.81792 20.8417 11.3651C20.8014 11.6111 20.7785 11.8623 20.7785 12.1187V18.8477C20.7785 19.6222 20.9909 20.3672 21.37 21.0152C21.7473 21.6631 22.2966 22.2142 22.9758 22.6004L25.0818 23.7976C26.1418 24.4005 27.3722 24.7452 28.6831 24.7452C30.7611 24.7452 32.6354 23.8807 33.9552 22.4965V26.3669C33.9552 27.1378 33.7462 27.8776 33.3708 28.5222C32.9916 29.1718 32.4441 29.7245 31.7631 30.1126C30.4083 30.8853 28.7376 30.8853 27.3827 30.1126L19.6185 25.6878C17.623 24.5511 16.3945 22.448 16.3945 20.1749V11.3269C16.3945 10.5542 16.6034 9.80928 16.9807 9.16305C17.358 8.51508 17.9056 7.96588 18.583 7.57953C19.9414 6.80682 21.6104 6.80682 22.9653 7.57953L23.5339 7.9035V7.90177Z" fill="url(#paint1_linear_71_285)"/>
<path d="M30.7296 12.0042C32.725 13.1407 33.9553 15.2423 33.9553 17.517V17.524C33.9553 20.3324 31.7283 22.692 28.8852 22.7978C28.3445 22.8168 27.8215 22.7562 27.3267 22.6262C28.6324 21.902 29.5678 20.5351 29.5678 18.8458C29.5678 17.7042 29.115 16.6283 28.3323 15.8296C28.0532 15.5437 27.7321 15.2942 27.3723 15.0898L22.7461 12.4529V12.1307C22.7461 10.6372 23.971 9.42969 25.4822 9.42969C25.9473 9.42969 26.3859 9.54403 26.7685 9.74674L30.7296 12.0042Z" fill="url(#paint2_linear_71_285)"/>
</g>
<defs>
<linearGradient id="paint0_linear_71_285" x1="21.4728" y1="7.00012" x2="21.4728" y2="35.0001" gradientUnits="userSpaceOnUse">
<stop stop-color="#F97316"/>
<stop offset="1" stop-color="#EA580C"/>
</linearGradient>
<linearGradient id="paint1_linear_71_285" x1="21.4727" y1="7" x2="21.4727" y2="35" gradientUnits="userSpaceOnUse">
<stop stop-color="#F97316"/>
<stop offset="1" stop-color="#EA580C"/>
</linearGradient>
<linearGradient id="paint2_linear_71_285" x1="21.4728" y1="6.99986" x2="21.4728" y2="34.9999" gradientUnits="userSpaceOnUse">
<stop stop-color="#F97316"/>
<stop offset="1" stop-color="#EA580C"/>
</linearGradient>
<clipPath id="clip0_71_285">
<rect width="26" height="28" fill="white" transform="translate(8 7)"/>
</clipPath>
</defs>
</svg>
