<svg width="24" height="24" viewBox="0 0 24 24" fill="none" xmlns="http://www.w3.org/2000/svg">
<path d="M0 12C0 5.37258 5.37258 0 12 0C18.6274 0 24 5.37258 24 12C24 18.6274 18.6274 24 12 24C5.37258 24 0 18.6274 0 12Z" fill="url(#paint0_linear_397_16677)"/>
<path d="M12 0.299805C18.4617 0.299805 23.7002 5.53827 23.7002 12C23.7002 18.4617 18.4617 23.7002 12 23.7002C5.53827 23.7002 0.299805 18.4617 0.299805 12C0.299805 5.53827 5.53827 0.299805 12 0.299805Z" stroke="black" stroke-opacity="0.1" stroke-width="0.6"/>
<path d="M11.0657 19.5943C11.7151 19.9696 12.5162 19.9686 13.1645 19.5911L14.5444 18.789L9.63423 15.9544C8.15001 15.0974 7.23608 13.5142 7.23608 11.8012V6.12891L5.85095 6.92372C5.20055 7.29688 4.79999 7.98944 4.79999 8.73893V13.1916C4.79999 14.9151 5.71919 16.5068 7.21078 17.3681L11.0668 19.5943H11.0657Z" fill="url(#paint1_linear_397_16677)"/>
<path d="M12.8724 4.63414C12.0955 4.98833 11.5221 5.71252 11.3777 6.58217C11.3545 6.72027 11.3429 6.86152 11.3429 7.00593V10.7903C11.3429 11.2256 11.4599 11.6441 11.6708 12.0088C11.8805 12.3725 12.1852 12.6824 12.5625 12.9007L13.7326 13.5742C14.3219 13.9126 15.0039 14.1066 15.7323 14.1066C16.8865 14.1066 17.927 13.6206 18.6596 12.8416V15.0184C18.6596 15.4516 18.5437 15.868 18.336 16.2306C18.1262 16.5953 17.8216 16.9063 17.4431 17.1245C16.6905 17.5588 15.7629 17.5588 15.0102 17.1245L10.6999 14.6357C9.59204 13.9969 8.90997 12.8142 8.90997 11.5344V6.55793C8.90997 6.12362 9.02593 5.70514 9.2357 5.34147C9.44551 4.97779 9.74907 4.66787 10.1254 4.45073C10.879 4.01642 11.8067 4.01642 12.5583 4.45073L12.8735 4.63309L12.8724 4.63414Z" fill="url(#paint2_linear_397_16677)"/>
<path d="M16.8674 6.94158C17.9754 7.58144 18.6584 8.76312 18.6584 10.0428V10.047C18.6584 11.6272 17.4219 12.9543 15.8428 13.0123C15.5424 13.0239 15.2526 12.9891 14.9774 12.9164C15.7015 12.5095 16.2223 11.74 16.2223 10.7902C16.2223 10.1482 15.9704 9.54211 15.5361 9.09411C15.3811 8.93283 15.203 8.79263 15.0038 8.67879L12.4359 7.19563V7.01432C12.4359 6.17418 13.1169 5.49426 13.9559 5.49426C14.2142 5.49426 14.4578 5.55857 14.6696 5.67242L16.8685 6.94263L16.8674 6.94158Z" fill="url(#paint3_linear_397_16677)"/>
<path d="M6.93573 11.8008C6.93573 13.5071 7.78958 15.0924 9.1955 16.0342L9.48456 16.2139L13.9455 18.7891L13.0139 19.332C12.4623 19.6532 11.7811 19.656 11.2267 19.3408L11.217 19.335L7.36053 17.1084C5.96183 16.3007 5.09979 14.8077 5.09979 13.1914V8.73926C5.09979 8.13718 5.4018 7.57794 5.89862 7.24707L6.00018 7.18359L6.93573 6.64648V11.8008ZM10.2756 4.71094C10.8907 4.35655 11.6373 4.33181 12.2687 4.63672C11.6509 5.07607 11.2121 5.75151 11.0822 6.53223C11.0562 6.68713 11.0432 6.8453 11.0432 7.00586V10.79C11.0432 11.2795 11.1748 11.75 11.4113 12.1592V12.1582C11.6175 12.5157 11.9048 12.8272 12.257 13.0635L12.4123 13.1602L12.4133 13.1611L13.5832 13.834C14.2166 14.1977 14.9501 14.4062 15.7326 14.4062C16.7213 14.4062 17.6319 14.0733 18.3596 13.5146V15.0186C18.3595 15.3506 18.2815 15.6716 18.1398 15.96L18.0754 16.0811C17.9144 16.3609 17.6901 16.6045 17.4142 16.7891L17.2932 16.8643C16.6745 17.2213 15.9208 17.2441 15.2853 16.9316L15.1603 16.8643L10.8498 14.376C9.83505 13.7908 9.21014 12.707 9.21014 11.5342V6.55762C9.21019 6.22456 9.2882 5.90228 9.43085 5.61328L9.4953 5.49121C9.6564 5.21198 9.88024 4.96889 10.1545 4.78516L10.2756 4.71094ZM13.9562 5.79395C14.1618 5.794 14.3544 5.84491 14.5217 5.93359L16.717 7.2002V7.20117C17.7322 7.7875 18.3586 8.87056 18.3586 10.043V10.0469C18.3586 11.3824 17.3789 12.5109 16.093 12.6895L15.8322 12.7129H15.7336C16.2127 12.2305 16.5226 11.5636 16.5226 10.79C16.5226 10.1594 16.306 9.55933 15.925 9.08203L15.7512 8.88574C15.5769 8.70457 15.3768 8.5461 15.1525 8.41797H15.1516L12.7355 7.02148V7.01465C12.7355 6.34033 13.2827 5.79395 13.9562 5.79395Z" stroke="white" stroke-opacity="0.1" stroke-width="0.6"/>
<defs>
<linearGradient id="paint0_linear_397_16677" x1="12" y1="24" x2="12" y2="-8.44577e-08" gradientUnits="userSpaceOnUse">
<stop stop-color="#F2F2F2"/>
<stop offset="1" stop-color="white"/>
</linearGradient>
<linearGradient id="paint1_linear_397_16677" x1="11.7298" y1="4.125" x2="11.7298" y2="19.875" gradientUnits="userSpaceOnUse">
<stop stop-color="#F97316"/>
<stop offset="1" stop-color="#EA580C"/>
</linearGradient>
<linearGradient id="paint2_linear_397_16677" x1="11.7298" y1="4.125" x2="11.7298" y2="19.875" gradientUnits="userSpaceOnUse">
<stop stop-color="#F97316"/>
<stop offset="1" stop-color="#EA580C"/>
</linearGradient>
<linearGradient id="paint3_linear_397_16677" x1="11.7298" y1="4.125" x2="11.7298" y2="19.875" gradientUnits="userSpaceOnUse">
<stop stop-color="#F97316"/>
<stop offset="1" stop-color="#EA580C"/>
</linearGradient>
</defs>
</svg>
